# xmcd CD database file
#
# Track frame offsets:
#	150
#	13889
#	36475
#	72499
#	86897
#	105504
#	126227
#	149176
#	164923
#	180197
#	202842
#	214318
#	231106
#
# Disc length: 3223 seconds
#
# Revision: 0
# Processed by: cddbd v1.5.1PL0 Copyright (c) Steve Scherf et al.
# Submitted via: CDex 1.50
#
DISCID=c90c950d
DTITLE=Jazz and Dintorni - Il Blues delle Origini
DYEAR=1900
DGENRE=Jazz
TTITLE0=Guitar Slim - The things That I Used to Do
TTITLE1=Lightin' Hopkins - Rocky Mountain
TTITLE2=Lightin' Hopkins - Blues Is a Feeling
TTITLE3=Sonny Terry - One Monkey Don't Stop the Show
TTITLE4=Sonny Terry and Brownie McGhee - Midnight Special
TTITLE5=Brownie McGhee - Jump, Little Children
TTITLE6=Big Joe Williams - Levee Camp Blues
TTITLE7=Memphis Slim - Beer Drinking Woman
TTITLE8=Memphis Willie B. - Lonesome Home Blues
TTITLE9=Shakey Jake - Mouth Harp Blues
TTITLE10=Frankie Lee Sims - Lucy Mae Blues
TTITLE11=Otis Spann - The Blues Never Die
TTITLE12=Billy Boy Arnold - School Time
EXTD=
EXTT0=
EXTT1=
EXTT2=
EXTT3=
EXTT4=
EXTT5=
EXTT6=
EXTT7=
EXTT8=
EXTT9=
EXTT10=
EXTT11=
EXTT12=
PLAYORDER=
